<?xml version="1.0" encoding="UTF-8" standalone="no"?>
<svg xmlns:rdf="http://www.w3.org/1999/02/22-rdf-syntax-ns#" xmlns="http://www.w3.org/2000/svg" version="1.1" xmlns:cc="http://creativecommons.org/ns#" xmlns:dc="http://purl.org/dc/elements/1.1/" viewBox="0 0 896 1024">
 <path d="m128 768h256v64h-256v-64zm320-384h-320v64h320v-64zm128 192v-128l-192 192 192 192v-128h320v-128h-320zm-288-64h-160v64h160v-64zm-160 192h160v-64h-160v64zm576 64h64v128c-1 18-7 33-19 45s-27 18-45 19h-640c-35 0-64-29-64-64v-704c0-35 29-64 64-64h192c0-71 57-128 128-128s128 57 128 128h192c35 0 64 29 64 64v320h-64v-192h-640v576h640v-128zm-576-512h512c0-35-29-64-64-64h-64c-35 0-64-29-64-64s-29-64-64-64-64 29-64 64-29 64-64 64h-64c-35 0-64 29-64 64z"/>
</svg>
